<svg width="20" height="13" viewBox="0 0 20 13" fill="none" xmlns="http://www.w3.org/2000/svg">
    <path
        d="M19.7588 5.8C19.5858 5.563 15.4588 0 10.1908 0C4.92282 0 0.799824 5.565 0.622824 5.8C0.543006 5.9095 0.5 6.0415 0.5 6.177C0.5 6.3125 0.543006 6.4445 0.622824 6.554C0.795824 6.791 4.92282 12.354 10.1908 12.354C15.4588 12.354 19.5908 6.791 19.7588 6.554C19.8388 6.44457 19.8819 6.31254 19.8819 6.177C19.8819 6.04146 19.8388 5.90944 19.7588 5.8ZM10.1908 11.076C6.30982 11.076 2.94782 7.384 1.95282 6.176C2.94682 4.968 6.30182 1.276 10.1908 1.276C14.0798 1.276 17.4338 4.968 18.4288 6.176C17.4358 7.385 14.0808 11.076 10.1908 11.076Z"
        fill="white" />
    <path
        d="M10.1908 3.315C9.62497 3.315 9.07184 3.48279 8.60135 3.79716C8.13086 4.11154 7.76415 4.55837 7.54761 5.08115C7.33107 5.60393 7.27442 6.17917 7.38481 6.73415C7.4952 7.28913 7.76768 7.79892 8.1678 8.19904C8.56792 8.59915 9.0777 8.87163 9.63268 8.98203C10.1877 9.09242 10.7629 9.03576 11.2857 8.81921C11.8085 8.60267 12.2553 8.23598 12.5697 7.76549C12.884 7.295 13.0518 6.74185 13.0518 6.17599C13.0508 5.41754 12.749 4.69044 12.2127 4.15413C11.6764 3.61782 10.9493 3.31606 10.1908 3.315Z"
        fill="white" />
</svg>