<svg width="128" height="31" viewBox="0 0 128 31" fill="none" xmlns="http://www.w3.org/2000/svg">
    <g filter="url(#filter0_d_1_195)">
        <path
            d="M40.651 7.70616C42.6771 7.57628 44.6712 8.272 46.1988 9.64171C46.3081 9.73872 46.4493 9.78953 46.5938 9.78383C46.7383 9.77814 46.8753 9.71637 46.977 9.61105L48.3973 8.15604C48.4521 8.09987 48.4952 8.03291 48.524 7.95921C48.5529 7.88551 48.5669 7.80658 48.5651 7.72719C48.5634 7.64781 48.546 7.5696 48.514 7.49729C48.4819 7.42498 48.436 7.36006 48.3788 7.30645C47.0642 6.10169 45.4834 5.2423 43.7727 4.80229C42.0619 4.36228 40.2724 4.35482 38.5582 4.78056C36.844 5.2063 35.2565 6.05248 33.9324 7.24625C32.6083 8.44001 31.5872 9.94558 30.9571 11.6333C30.327 13.3211 30.1068 15.1404 30.3154 16.9347C30.524 18.729 31.1551 20.4445 32.1545 21.9334C33.1539 23.4223 34.4916 24.6401 36.0524 25.4819C37.6131 26.3237 39.3502 26.7643 41.1141 26.7657C43.7956 26.7739 46.3843 25.7605 48.3771 23.9225C48.4342 23.869 48.4801 23.8041 48.512 23.7319C48.544 23.6597 48.5612 23.5815 48.5628 23.5023C48.5644 23.423 48.5502 23.3442 48.5212 23.2707C48.4922 23.1972 48.4489 23.1305 48.394 23.0746L46.9737 21.6196C46.8722 21.5148 46.7357 21.4532 46.5917 21.4472C46.4476 21.4412 46.3067 21.4912 46.1972 21.5873C45.2701 22.4144 44.1639 23.0031 42.9704 23.3046C41.7768 23.6062 40.5303 23.6119 39.3341 23.3212C38.138 23.0305 37.0267 22.4519 36.0925 21.6333C35.1583 20.8147 34.4281 19.7797 33.9624 18.6142C33.4968 17.4487 33.309 16.1862 33.4148 14.9315C33.5207 13.6768 33.917 12.466 34.5709 11.3996C35.2248 10.3332 36.1174 9.44183 37.1748 8.7995C38.2323 8.15716 39.4239 7.78235 40.651 7.70616V7.70616Z"
            fill="white" />
        <path
            d="M22.7133 8.24512C21.2591 6.59364 19.3504 5.43249 17.2389 4.91479C15.1275 4.39709 12.9125 4.54715 10.886 5.34519C8.85944 6.14322 7.11662 7.55175 5.88733 9.38503C4.65804 11.2183 4 13.3902 4 15.6144C4 17.8385 4.65804 20.0104 5.88733 21.8437C7.11662 23.677 8.85944 25.0855 10.886 25.8836C12.9125 26.6816 15.1275 26.8316 17.2389 26.3139C19.3504 25.7962 21.2591 24.6351 22.7133 22.9836V25.8663C22.7133 26.0219 22.7736 26.171 22.881 26.281C22.9884 26.391 23.134 26.4528 23.2858 26.4528H25.0081C25.1599 26.4528 25.3055 26.391 25.4129 26.281C25.5203 26.171 25.5806 26.0219 25.5806 25.8663V5.51015C25.5804 5.3547 25.5201 5.20568 25.4127 5.09581C25.3054 4.98595 25.1598 4.92424 25.0081 4.92424H23.2874C23.1356 4.92424 22.99 4.98603 22.8826 5.09601C22.7753 5.206 22.715 5.35516 22.715 5.5107V8.24512H22.7133ZM14.7456 23.6838C13.1877 23.6838 11.6648 23.2106 10.3694 22.3239C9.07411 21.4372 8.06451 20.177 7.46831 18.7025C6.87211 17.2281 6.71609 15.6056 7.01998 14.0403C7.32386 12.475 8.07401 11.0372 9.17556 9.90861C10.2771 8.78006 11.6806 8.01147 13.2085 7.70005C14.7365 7.38862 16.3202 7.54835 17.7595 8.15902C19.1989 8.76969 20.4291 9.80388 21.2947 11.1308C22.1603 12.4578 22.6223 14.0179 22.6225 15.6138C22.6202 17.7533 21.7895 19.8045 20.3129 21.3174C18.8362 22.8303 16.834 23.6813 14.7456 23.6838Z"
            fill="white" />
        <path
            d="M70.0716 5.51012V8.24509C68.6172 6.59347 66.7083 5.43223 64.5967 4.9145C62.485 4.39677 60.2698 4.54686 58.243 5.34498C56.2163 6.1431 54.4734 7.55177 53.2439 9.38523C52.0145 11.2187 51.3564 13.3908 51.3564 15.6152C51.3564 17.8395 52.0145 20.0117 53.2439 21.8451C54.4734 23.6786 56.2163 25.0873 58.243 25.8854C60.2698 26.6835 62.485 26.8336 64.5967 26.3159C66.7083 25.7981 68.6172 24.6369 70.0716 22.9853V25.868C70.0716 26.0235 70.1319 26.1727 70.2393 26.2827C70.3466 26.3926 70.4922 26.4544 70.6441 26.4544H72.3631C72.5149 26.4544 72.6605 26.3926 72.7679 26.2827C72.8753 26.1727 72.9356 26.0235 72.9356 25.868V5.51012C72.9356 5.35458 72.8753 5.20541 72.7679 5.09543C72.6605 4.98544 72.5149 4.92366 72.3631 4.92366H70.6468C70.5714 4.92336 70.4967 4.93831 70.427 4.96765C70.3572 4.99698 70.2938 5.04012 70.2404 5.0946C70.187 5.14908 70.1445 5.21383 70.1156 5.28513C70.0866 5.35643 70.0717 5.43289 70.0716 5.51012V5.51012ZM62.1033 23.6838C60.5454 23.6837 59.0226 23.2103 57.7273 22.3236C56.4321 21.4369 55.4225 20.1766 54.8264 18.7021C54.2303 17.2277 54.0744 15.6052 54.3783 14.0399C54.6823 12.4747 55.4325 11.0369 56.534 9.90839C57.6356 8.77989 59.0391 8.01136 60.567 7.69998C62.0949 7.3886 63.6786 7.54836 65.1179 8.15904C66.5572 8.76973 67.7874 9.80393 68.653 11.1309C69.5186 12.4578 69.9806 14.0178 69.9807 15.6138C69.9784 17.7534 69.1477 19.8046 67.6709 21.3175C66.1941 22.8304 64.1918 23.6814 62.1033 23.6838V23.6838Z"
            fill="white" />
        <path
            d="M113.259 26.527C110.777 26.5247 108.372 25.6408 106.454 24.0258C104.537 22.4108 103.225 20.1647 102.742 17.6701C102.26 15.1754 102.637 12.5866 103.808 10.3446C104.98 8.1026 106.874 6.34612 109.169 5.37437C111.463 4.40262 114.015 4.27573 116.39 5.01531C118.765 5.75488 120.816 7.31518 122.194 9.43039C123.573 11.5456 124.192 14.0849 123.948 16.6157C123.704 19.1464 122.61 21.5121 120.854 23.3098C119.858 24.332 118.673 25.1424 117.37 25.6945C116.067 26.2466 114.67 26.5295 113.259 26.527V26.527ZM113.259 7.46133C111.436 7.46076 109.669 8.10785 108.26 9.29232C106.85 10.4768 105.885 12.1254 105.529 13.957C105.174 15.7887 105.449 17.6902 106.308 19.3373C107.167 20.9845 108.557 22.2755 110.242 22.9902C111.926 23.7049 113.8 23.7992 115.545 23.257C117.289 22.7147 118.796 21.5695 119.809 20.0165C120.821 18.4635 121.277 16.5988 121.098 14.7402C120.919 12.8816 120.116 11.1442 118.827 9.8239C118.097 9.07236 117.23 8.47644 116.274 8.07062C115.318 7.6648 114.294 7.45714 113.259 7.45965V7.46133Z"
            fill="white" />
        <path
            d="M108.211 11.8191C107.359 13.0636 106.962 14.5764 107.091 16.0911C107.22 17.6058 107.867 19.0252 108.918 20.0994C109.968 21.1736 111.355 21.8336 112.833 21.9633C114.312 22.093 115.788 21.684 117.001 20.8084C116.482 18.6281 115.388 16.6362 113.837 15.0507C112.287 13.4652 110.341 12.3472 108.211 11.8191V11.8191Z"
            fill="white" />
        <path
            d="M114.835 12.696C115.427 13.3023 116.174 13.7258 116.991 13.9184C117.807 14.111 118.659 14.0649 119.451 13.7853C119.086 12.4551 118.315 11.2795 117.251 10.4306C116.187 9.58169 114.885 9.10398 113.537 9.06738C113.482 9.73254 113.57 10.4019 113.794 11.0287C114.018 11.6554 114.373 12.2245 114.835 12.696V12.696Z"
            fill="white" />
        <path
            d="M79.0037 26.5113C80.0856 26.5113 80.9627 25.6128 80.9627 24.5044C80.9627 23.396 80.0856 22.4975 79.0037 22.4975C77.9218 22.4975 77.0447 23.396 77.0447 24.5044C77.0447 25.6128 77.9218 26.5113 79.0037 26.5113Z"
            fill="white" />
        <path
            d="M97.9429 9.51453L96.3849 10.3814C96.2429 10.4614 96.0771 10.485 95.9192 10.4477C95.7613 10.4103 95.6224 10.3147 95.5289 10.179C94.9669 9.31621 94.2344 8.58372 93.3789 8.02886C92.711 7.64184 91.9566 7.43864 91.1892 7.43905C90.3354 7.40606 89.4965 7.67494 88.8133 8.20056C88.5194 8.41319 88.28 8.6955 88.1156 9.02341C87.9512 9.35131 87.8666 9.71509 87.8692 10.0837C87.8692 11.1273 88.9825 12.1129 90.6347 12.7501L92.9077 13.622C94.4464 14.1221 95.8404 15.0044 96.9656 16.1903C97.8303 17.2227 98.289 18.5477 98.2525 19.9075C98.2745 20.8278 98.0981 21.7418 97.736 22.5843C97.3739 23.4269 96.8349 24.1773 96.1574 24.7821C94.7165 26.0886 92.8431 26.7823 90.9198 26.7215C89.1471 26.7915 87.409 26.2065 86.0222 25.0731C84.8877 24.1068 84.1008 22.7801 83.7862 21.3034C83.7697 21.2135 83.7735 21.1208 83.7971 21.0325C83.8207 20.9443 83.8637 20.8626 83.9227 20.7939C83.9816 20.7251 84.0551 20.671 84.1376 20.6357C84.22 20.6003 84.3092 20.5847 84.3984 20.5899H86.3574C86.4813 20.5866 86.6034 20.6212 86.708 20.6893C86.8126 20.7574 86.895 20.856 86.9446 20.9723C87.141 21.4442 87.3833 21.8947 87.6678 22.3169C88.0894 22.8088 88.6106 23.2006 89.195 23.4651C89.7795 23.7295 90.4132 23.8603 91.052 23.8483C92.1836 23.831 93.2764 23.4232 94.1538 22.691C94.5196 22.3752 94.816 21.9838 95.0239 21.5425C95.2317 21.1011 95.3461 20.6198 95.3597 20.13C95.3639 19.7411 95.3015 19.3545 95.1752 18.9877C95.0473 18.6333 94.8516 18.3086 94.5995 18.0327C94.3023 17.7125 93.962 17.4373 93.589 17.2155C93.1171 16.934 92.6239 16.6916 92.1143 16.4908L89.9163 15.6323C86.7971 14.3952 84.6673 12.5868 84.6673 10.2041C84.6625 9.42175 84.8377 8.64923 85.1787 7.94917C85.5197 7.24911 86.017 6.6412 86.6301 6.1747C88.0179 5.05694 89.7464 4.47726 91.5108 4.53796C92.8814 4.593 94.2151 5.00816 95.384 5.74358C96.5528 6.47899 97.5173 7.50995 98.185 8.73741C98.2203 8.80444 98.242 8.87805 98.2488 8.95386C98.2557 9.02966 98.2476 9.10611 98.225 9.17863C98.2024 9.25115 98.1658 9.31827 98.1173 9.37598C98.0688 9.43369 98.0095 9.48081 97.9429 9.51453V9.51453Z"
            fill="white" />
    </g>
    <defs>
        <filter id="filter0_d_1_195" x="0" y="0.466675" width="128" height="30.299"
            filterUnits="userSpaceOnUse" color-interpolation-filters="sRGB">
            <feFlood flood-opacity="0" result="BackgroundImageFix" />
            <feColorMatrix in="SourceAlpha" type="matrix"
                values="0 0 0 0 0 0 0 0 0 0 0 0 0 0 0 0 0 0 127 0" result="hardAlpha" />
            <feOffset />
            <feGaussianBlur stdDeviation="2" />
            <feComposite in2="hardAlpha" operator="out" />
            <feColorMatrix type="matrix" values="0 0 0 0 0 0 0 0 0 0 0 0 0 0 0 0 0 0 0.25 0" />
            <feBlend mode="normal" in2="BackgroundImageFix" result="effect1_dropShadow_1_195" />
            <feBlend mode="normal" in="SourceGraphic" in2="effect1_dropShadow_1_195" result="shape" />
        </filter>
    </defs>
</svg>