<svg width="63" height="59" viewBox="0 0 63 59" fill="none" xmlns="http://www.w3.org/2000/svg">
    <g filter="url(#filter0_bd_1_4951)">
        <path
            d="M43.0655 8.46302H20.1795C20.1155 8.46277 20.0526 8.48033 19.9972 8.51389C19.9418 8.54745 19.8959 8.5958 19.8641 8.65403L8.42148 29.4235C8.38973 29.4811 8.37305 29.5464 8.37305 29.613C8.37305 29.6795 8.38973 29.7448 8.42148 29.8025L19.8641 50.5719C19.8959 50.6301 19.9418 50.6785 19.9972 50.712C20.0526 50.7456 20.1155 50.7632 20.1795 50.7629H43.0655C43.1295 50.7632 43.1925 50.7456 43.2479 50.712C43.3033 50.6785 43.3492 50.6301 43.3809 50.5719L54.8243 29.8025C54.8554 29.7446 54.8718 29.6794 54.8718 29.613C54.8718 29.5466 54.8554 29.4813 54.8243 29.4235L43.3809 8.65403C43.3492 8.5958 43.3033 8.54745 43.2479 8.51389C43.1925 8.48033 43.1295 8.46277 43.0655 8.46302Z"
            fill="url(#paint0_radial_1_4951)" />
    </g>
    <g filter="url(#filter1_bd_1_4951)">
        <path
            d="M17.5584 2.93428H45.7001C45.7643 2.93348 45.8275 2.9506 45.8833 2.9839C45.9391 3.01719 45.9855 3.06544 46.0176 3.12371C46.0497 3.18198 46.0664 3.24817 46.0661 3.31545C46.0657 3.38274 46.0482 3.44869 46.0155 3.50657L43.3865 8.27674C43.3548 8.33498 43.3088 8.38333 43.2534 8.41689C43.198 8.45045 43.1351 8.46801 43.0711 8.46776H20.1852C20.1212 8.46801 20.0583 8.45045 20.0029 8.41689C19.9474 8.38333 19.9015 8.33498 19.8698 8.27674L17.2415 3.50657C17.2087 3.44858 17.1912 3.38248 17.1909 3.31506C17.1906 3.24765 17.2075 3.18136 17.2398 3.12305C17.2721 3.06473 17.3186 3.01649 17.3746 2.98331C17.4306 2.95012 17.4941 2.93321 17.5584 2.93428Z"
            fill="url(#paint1_linear_1_4951)" />
    </g>
    <g filter="url(#filter2_bd_1_4951)">
        <path
            d="M2.55355 29.0481L16.6251 3.51072C16.6566 3.45203 16.7024 3.40317 16.7578 3.36917C16.8133 3.33517 16.8763 3.31726 16.9406 3.31726C17.0048 3.31726 17.0679 3.33517 17.1233 3.36917C17.1788 3.40317 17.2246 3.45203 17.256 3.51072L19.8843 8.28089C19.916 8.33851 19.9327 8.40386 19.9327 8.47039C19.9327 8.53692 19.916 8.60228 19.8843 8.6599L8.44163 29.4294C8.40988 29.4876 8.36394 29.5359 8.30853 29.5695C8.25311 29.6031 8.19019 29.6206 8.12618 29.6204H2.87186C2.8074 29.6217 2.74379 29.605 2.68757 29.5719C2.63136 29.5389 2.5846 29.4906 2.55214 29.4323C2.51968 29.3739 2.50268 29.3075 2.50293 29.24C2.50318 29.1724 2.52066 29.1062 2.55355 29.0481V29.0481Z"
            fill="url(#paint2_linear_1_4951)" />
    </g>
    <g filter="url(#filter3_bd_1_4951)">
        <path
            d="M60.6942 29.0481L46.6227 3.51072C46.5913 3.45203 46.5455 3.40317 46.49 3.36917C46.4346 3.33517 46.3715 3.31726 46.3073 3.31726C46.2431 3.31726 46.18 3.33517 46.1245 3.36917C46.0691 3.40317 46.0233 3.45203 45.9919 3.51072L43.3637 8.28166C43.3319 8.33928 43.3152 8.40463 43.3152 8.47116C43.3152 8.53769 43.3319 8.60305 43.3637 8.66067L54.8062 29.4302C54.8381 29.4883 54.884 29.5365 54.9394 29.5699C54.9948 29.6033 55.0577 29.6208 55.1216 29.6204H60.3788C60.443 29.6212 60.5063 29.6041 60.5621 29.5708C60.6179 29.5375 60.6642 29.4893 60.6963 29.431C60.7285 29.3727 60.7452 29.3066 60.7448 29.2393C60.7445 29.172 60.727 29.106 60.6942 29.0481V29.0481Z"
            fill="url(#paint3_linear_1_4951)" />
    </g>
    <g filter="url(#filter4_bd_1_4951)">
        <path
            d="M2.55355 30.1846L16.6251 55.7219C16.6566 55.7806 16.7024 55.8295 16.7578 55.8635C16.8133 55.8975 16.8763 55.9154 16.9406 55.9154C17.0048 55.9154 17.0679 55.8975 17.1233 55.8635C17.1788 55.8295 17.2246 55.7806 17.256 55.7219L19.8843 50.9518C19.916 50.8942 19.9327 50.8288 19.9327 50.7623C19.9327 50.6958 19.916 50.6304 19.8843 50.5728L8.44163 29.8034C8.40988 29.7451 8.36394 29.6968 8.30853 29.6632C8.25311 29.6296 8.19019 29.6121 8.12618 29.6123H2.87186C2.8074 29.611 2.74379 29.6277 2.68757 29.6608C2.63136 29.6939 2.5846 29.7421 2.55214 29.8004C2.51968 29.8588 2.50268 29.9252 2.50293 29.9927C2.50318 30.0603 2.52066 30.1265 2.55355 30.1846V30.1846Z"
            fill="url(#paint4_linear_1_4951)" />
    </g>
    <g filter="url(#filter5_bd_1_4951)">
        <path
            d="M60.6942 30.1846L46.6227 55.7219C46.5913 55.7806 46.5455 55.8294 46.49 55.8634C46.4346 55.8974 46.3715 55.9154 46.3073 55.9154C46.2431 55.9154 46.18 55.8974 46.1245 55.8634C46.0691 55.8294 46.0233 55.7806 45.9919 55.7219L43.3637 50.9517C43.3319 50.8941 43.3152 50.8288 43.3152 50.7622C43.3152 50.6957 43.3319 50.6303 43.3637 50.5727L54.8062 29.8033C54.838 29.7451 54.8839 29.6967 54.9393 29.6632C54.9947 29.6296 55.0576 29.6121 55.1216 29.6123H60.3788C60.443 29.6115 60.5063 29.6286 60.5621 29.6619C60.6179 29.6952 60.6642 29.7435 60.6963 29.8017C60.7285 29.86 60.7452 29.9262 60.7448 29.9935C60.7445 30.0608 60.727 30.1267 60.6942 30.1846V30.1846Z"
            fill="url(#paint5_linear_1_4951)" />
    </g>
    <g filter="url(#filter6_bd_1_4951)">
        <path
            d="M17.5584 56.22H45.7002C45.7643 56.2207 45.8275 56.2035 45.8832 56.1701C45.9389 56.1368 45.9852 56.0885 46.0172 56.0303C46.0492 55.972 46.0659 55.9059 46.0655 55.8387C46.0651 55.7715 46.0476 55.7056 46.0149 55.6477L43.3866 50.8776C43.3549 50.8194 43.309 50.771 43.2535 50.7374C43.1981 50.7039 43.1352 50.6863 43.0712 50.6866H20.1852C20.1212 50.6863 20.0583 50.7039 20.0029 50.7374C19.9475 50.771 19.9015 50.8194 19.8698 50.8776L17.2415 55.6477C17.2087 55.7057 17.1912 55.7718 17.1909 55.8392C17.1906 55.9067 17.2075 55.973 17.2398 56.0313C17.2721 56.0896 17.3186 56.1378 17.3746 56.171C17.4306 56.2042 17.4941 56.2211 17.5584 56.22V56.22Z"
            fill="url(#paint6_linear_1_4951)" />
    </g>
    <defs>
        <filter id="filter0_bd_1_4951" x="-41.627" y="-41.537" width="146.499" height="142.3"
            filterUnits="userSpaceOnUse" color-interpolation-filters="sRGB">
            <feFlood flood-opacity="0" result="BackgroundImageFix" />
            <feGaussianBlur in="BackgroundImageFix" stdDeviation="25" />
            <feComposite in2="SourceAlpha" operator="in" result="effect1_backgroundBlur_1_4951" />
            <feColorMatrix in="SourceAlpha" type="matrix"
                values="0 0 0 0 0 0 0 0 0 0 0 0 0 0 0 0 0 0 127 0" result="hardAlpha" />
            <feOffset />
            <feGaussianBlur stdDeviation="1" />
            <feColorMatrix type="matrix" values="0 0 0 0 1 0 0 0 0 1 0 0 0 0 1 0 0 0 0.6 0" />
            <feBlend mode="normal" in2="effect1_backgroundBlur_1_4951"
                result="effect2_dropShadow_1_4951" />
            <feBlend mode="normal" in="SourceGraphic" in2="effect2_dropShadow_1_4951" result="shape" />
        </filter>
        <filter id="filter1_bd_1_4951" x="-32.8091" y="-47.0658" width="128.875" height="105.534"
            filterUnits="userSpaceOnUse" color-interpolation-filters="sRGB">
            <feFlood flood-opacity="0" result="BackgroundImageFix" />
            <feGaussianBlur in="BackgroundImageFix" stdDeviation="25" />
            <feComposite in2="SourceAlpha" operator="in" result="effect1_backgroundBlur_1_4951" />
            <feColorMatrix in="SourceAlpha" type="matrix"
                values="0 0 0 0 0 0 0 0 0 0 0 0 0 0 0 0 0 0 127 0" result="hardAlpha" />
            <feOffset />
            <feGaussianBlur stdDeviation="1" />
            <feColorMatrix type="matrix" values="0 0 0 0 1 0 0 0 0 1 0 0 0 0 1 0 0 0 0.6 0" />
            <feBlend mode="normal" in2="effect1_backgroundBlur_1_4951"
                result="effect2_dropShadow_1_4951" />
            <feBlend mode="normal" in="SourceGraphic" in2="effect2_dropShadow_1_4951" result="shape" />
        </filter>
        <filter id="filter2_bd_1_4951" x="-47.4971" y="-46.6827" width="117.43" height="126.303"
            filterUnits="userSpaceOnUse" color-interpolation-filters="sRGB">
            <feFlood flood-opacity="0" result="BackgroundImageFix" />
            <feGaussianBlur in="BackgroundImageFix" stdDeviation="25" />
            <feComposite in2="SourceAlpha" operator="in" result="effect1_backgroundBlur_1_4951" />
            <feColorMatrix in="SourceAlpha" type="matrix"
                values="0 0 0 0 0 0 0 0 0 0 0 0 0 0 0 0 0 0 127 0" result="hardAlpha" />
            <feOffset />
            <feGaussianBlur stdDeviation="1" />
            <feColorMatrix type="matrix" values="0 0 0 0 1 0 0 0 0 1 0 0 0 0 1 0 0 0 0.6 0" />
            <feBlend mode="normal" in2="effect1_backgroundBlur_1_4951"
                result="effect2_dropShadow_1_4951" />
            <feBlend mode="normal" in="SourceGraphic" in2="effect2_dropShadow_1_4951" result="shape" />
        </filter>
        <filter id="filter3_bd_1_4951" x="-6.68481" y="-46.6827" width="117.43" height="126.303"
            filterUnits="userSpaceOnUse" color-interpolation-filters="sRGB">
            <feFlood flood-opacity="0" result="BackgroundImageFix" />
            <feGaussianBlur in="BackgroundImageFix" stdDeviation="25" />
            <feComposite in2="SourceAlpha" operator="in" result="effect1_backgroundBlur_1_4951" />
            <feColorMatrix in="SourceAlpha" type="matrix"
                values="0 0 0 0 0 0 0 0 0 0 0 0 0 0 0 0 0 0 127 0" result="hardAlpha" />
            <feOffset />
            <feGaussianBlur stdDeviation="1" />
            <feColorMatrix type="matrix" values="0 0 0 0 1 0 0 0 0 1 0 0 0 0 1 0 0 0 0.6 0" />
            <feBlend mode="normal" in2="effect1_backgroundBlur_1_4951"
                result="effect2_dropShadow_1_4951" />
            <feBlend mode="normal" in="SourceGraphic" in2="effect2_dropShadow_1_4951" result="shape" />
        </filter>
        <filter id="filter4_bd_1_4951" x="-47.4971" y="-20.3877" width="117.43" height="126.303"
            filterUnits="userSpaceOnUse" color-interpolation-filters="sRGB">
            <feFlood flood-opacity="0" result="BackgroundImageFix" />
            <feGaussianBlur in="BackgroundImageFix" stdDeviation="25" />
            <feComposite in2="SourceAlpha" operator="in" result="effect1_backgroundBlur_1_4951" />
            <feColorMatrix in="SourceAlpha" type="matrix"
                values="0 0 0 0 0 0 0 0 0 0 0 0 0 0 0 0 0 0 127 0" result="hardAlpha" />
            <feOffset />
            <feGaussianBlur stdDeviation="1" />
            <feColorMatrix type="matrix" values="0 0 0 0 1 0 0 0 0 1 0 0 0 0 1 0 0 0 0.6 0" />
            <feBlend mode="normal" in2="effect1_backgroundBlur_1_4951"
                result="effect2_dropShadow_1_4951" />
            <feBlend mode="normal" in="SourceGraphic" in2="effect2_dropShadow_1_4951" result="shape" />
        </filter>
        <filter id="filter5_bd_1_4951" x="-6.68481" y="-20.3877" width="117.43" height="126.303"
            filterUnits="userSpaceOnUse" color-interpolation-filters="sRGB">
            <feFlood flood-opacity="0" result="BackgroundImageFix" />
            <feGaussianBlur in="BackgroundImageFix" stdDeviation="25" />
            <feComposite in2="SourceAlpha" operator="in" result="effect1_backgroundBlur_1_4951" />
            <feColorMatrix in="SourceAlpha" type="matrix"
                values="0 0 0 0 0 0 0 0 0 0 0 0 0 0 0 0 0 0 127 0" result="hardAlpha" />
            <feOffset />
            <feGaussianBlur stdDeviation="1" />
            <feColorMatrix type="matrix" values="0 0 0 0 1 0 0 0 0 1 0 0 0 0 1 0 0 0 0.6 0" />
            <feBlend mode="normal" in2="effect1_backgroundBlur_1_4951"
                result="effect2_dropShadow_1_4951" />
            <feBlend mode="normal" in="SourceGraphic" in2="effect2_dropShadow_1_4951" result="shape" />
        </filter>
        <filter id="filter6_bd_1_4951" x="-32.8091" y="0.686584" width="128.875" height="105.534"
            filterUnits="userSpaceOnUse" color-interpolation-filters="sRGB">
            <feFlood flood-opacity="0" result="BackgroundImageFix" />
            <feGaussianBlur in="BackgroundImageFix" stdDeviation="25" />
            <feComposite in2="SourceAlpha" operator="in" result="effect1_backgroundBlur_1_4951" />
            <feColorMatrix in="SourceAlpha" type="matrix"
                values="0 0 0 0 0 0 0 0 0 0 0 0 0 0 0 0 0 0 127 0" result="hardAlpha" />
            <feOffset />
            <feGaussianBlur stdDeviation="1" />
            <feColorMatrix type="matrix" values="0 0 0 0 1 0 0 0 0 1 0 0 0 0 1 0 0 0 0.6 0" />
            <feBlend mode="normal" in2="effect1_backgroundBlur_1_4951"
                result="effect2_dropShadow_1_4951" />
            <feBlend mode="normal" in="SourceGraphic" in2="effect2_dropShadow_1_4951" result="shape" />
        </filter>
        <radialGradient id="paint0_radial_1_4951" cx="0" cy="0" r="1" gradientUnits="userSpaceOnUse"
            gradientTransform="translate(33.3304 29.5805) scale(20.5547 21.0091)">
            <stop stop-color="#97FFE6" stop-opacity="0.8" />
            <stop offset="1" stop-color="#00F0B6" stop-opacity="0.9" />
        </radialGradient>
        <linearGradient id="paint1_linear_1_4951" x1="43.6136" y1="6.48677" x2="24.8096"
            y2="16.3528" gradientUnits="userSpaceOnUse">
            <stop stop-color="#23E6B7" stop-opacity="0.8" />
            <stop offset="1" stop-color="#7CFFD0" stop-opacity="0.9" />
        </linearGradient>
        <linearGradient id="paint2_linear_1_4951" x1="17.9189" y1="6.49164" x2="0.951454"
            y2="8.20196" gradientUnits="userSpaceOnUse">
            <stop stop-color="#43EDC4" stop-opacity="0.8" />
            <stop offset="1" stop-color="#BBFFE6" stop-opacity="0.9" />
        </linearGradient>
        <linearGradient id="paint3_linear_1_4951" x1="57.3194" y1="29.5832" x2="43.1444"
            y2="7.92134" gradientUnits="userSpaceOnUse">
            <stop stop-color="#0EBC92" stop-opacity="0.8" />
            <stop offset="1" stop-color="#57F5BC" stop-opacity="0.9" />
        </linearGradient>
        <linearGradient id="paint4_linear_1_4951" x1="17.9189" y1="52.6656" x2="3.74392"
            y2="31.0038" gradientUnits="userSpaceOnUse">
            <stop stop-color="#006A51" stop-opacity="0.8" />
            <stop offset="1" stop-color="#5FE0B2" stop-opacity="0.9" />
        </linearGradient>
        <linearGradient id="paint5_linear_1_4951" x1="45.3292" y1="52.6656" x2="56.3739"
            y2="29.1304" gradientUnits="userSpaceOnUse">
            <stop stop-color="#007458" stop-opacity="0.8" />
            <stop offset="1" stop-color="#26D596" stop-opacity="0.9" />
        </linearGradient>
        <linearGradient id="paint6_linear_1_4951" x1="17.9202" y1="54.4438" x2="19.655" y2="47.0479"
            gradientUnits="userSpaceOnUse">
            <stop stop-color="#0FAF75" stop-opacity="0.9" />
            <stop offset="1" stop-color="#10886B" stop-opacity="0.8" />
        </linearGradient>
    </defs>
</svg>